<svg width="104" height="67" viewBox="0 0 104 67" fill="none" xmlns="http://www.w3.org/2000/svg">
<g clip-path="url(#clip0_3879_6201)">
<path d="M96.2138 26.2664C95.6512 27.1166 95.4466 28.14 95.275 29.2067C95.0649 30.5054 94.8431 31.7521 94.3834 32.9746C93.8312 34.4396 92.9031 36.0718 91.2887 37.3494C89.6235 32.8524 87.1981 28.6742 84.1182 24.9968C86.0422 24.2286 87.9305 24.2404 89.4833 24.4963C90.7729 24.7097 91.9647 25.1412 93.1961 25.6084C94.2059 25.9938 95.1953 26.3287 96.2135 26.2664H96.2138ZM77.4778 7.5498L77.4772 7.55084L77.4785 7.55049C77.4161 8.56729 77.751 9.55569 78.1365 10.5649C78.6045 11.795 79.0365 12.9853 79.2504 14.2736C79.5062 15.8258 79.518 17.7147 78.747 19.6385C75.06 16.5663 70.8727 14.149 66.3672 12.4918C67.6488 10.8651 69.2903 9.93249 70.7633 9.37838C71.987 8.91915 73.235 8.69785 74.5357 8.48729C75.6027 8.31621 76.6271 8.11257 77.4778 7.5498ZM93.2612 44.6969C95.2976 44.9979 96.9179 45.9468 98.1288 46.939C99.1386 47.7681 99.9543 48.7371 100.787 49.7574C101.469 50.5944 102.158 51.3788 103.071 51.8336H93.8773C93.8748 49.4415 93.6685 47.0541 93.2612 44.6969ZM26.2922 7.55049L26.2929 7.55118V7.5498C27.1436 8.11222 28.168 8.31586 29.2354 8.48764C30.5354 8.69751 31.7834 8.91915 33.0071 9.37803C34.4801 9.93214 36.1216 10.8651 37.4028 12.4915C32.8973 14.1485 28.71 16.5659 25.0234 19.6385C24.2524 17.7147 24.2635 15.8258 24.5204 14.2733C24.7339 12.985 25.1658 11.7947 25.6335 10.5642C26.019 9.55535 26.3546 8.56729 26.2922 7.55049ZM7.55691 26.2671L7.55796 26.2674L7.55761 26.2667C8.57542 26.3287 9.56481 25.9938 10.575 25.6087C11.8064 25.1412 12.9978 24.7097 14.2871 24.4963C15.8402 24.2408 17.7285 24.229 19.6525 24.9971C16.573 28.6748 14.1478 32.8529 12.4824 37.3497C10.8676 36.0718 9.9399 34.4399 9.38731 32.9746C8.92764 31.7521 8.70611 30.5054 8.49569 29.2067C8.32409 28.14 8.1199 27.117 7.55691 26.2671ZM0.700195 51.8339C1.61297 51.3792 2.3018 50.5951 2.98369 49.7577C3.81569 48.7378 4.63209 47.7688 5.64158 46.94C6.85284 45.9471 8.47212 44.9982 10.5088 44.6976C10.1017 47.0547 9.89611 49.442 9.89414 51.8339H0.700195ZM51.8855 0.699219V0.700258L51.8862 0.699219C52.341 1.61143 53.1262 2.29957 53.9648 2.98148C54.9858 3.81265 55.9561 4.62789 56.7857 5.63637C57.7851 6.85404 58.7409 8.48452 59.0355 10.5375C56.6739 10.1325 54.2821 9.92889 51.8859 9.92903C49.4481 9.92903 47.0599 10.1389 44.7355 10.5375C45.0302 8.48487 45.986 6.85404 46.9854 5.63707C47.8157 4.62789 48.7856 3.81265 49.8066 2.98078C50.6448 2.29992 51.43 1.61143 51.8855 0.699219Z" fill="#FAB60F"/>
<path d="M43.346 51.843L46.5055 51.834C46.9205 49.168 46.1089 47.1153 43.4098 47.6054C41.135 48.0178 38.6916 50.2755 37.2148 51.834L41.3804 51.8156C41.8446 51.5108 42.7532 51.1628 43.1262 51.4218C43.2656 51.5188 43.3387 51.6566 43.346 51.843Z" fill="#D52736"/>
<path d="M57.5541 51.8339H61.4957C61.6832 47.1838 60.9334 42.3821 58.7695 38.2273C56.8011 34.4472 53.5477 31.8778 49.3357 31.2569C43.1868 30.3506 36.9825 32.9511 31.7371 36.6713C26.0261 40.7218 21.3122 46.2232 17.1924 51.8343L22.3993 51.8266C27.0869 45.189 37.8686 35.1121 45.8 35.0463C48.3272 35.0256 50.8974 35.6181 52.7975 37.3116C54.1741 38.539 55.8433 40.922 55.7615 42.8562C55.7129 44.0029 54.6941 44.3548 53.7172 43.9991C52.9583 43.7234 52.4224 43.0304 51.8913 42.3018C50.1656 39.9347 47.4737 38.7762 44.5212 39.18C40.9994 39.6611 36.6341 42.3928 33.8185 44.877C31.3908 47.02 29.1617 49.3646 27.0592 51.8343H32.6572C34.7091 49.3594 36.8758 47.249 39.6609 45.516C40.5421 44.9677 41.6275 44.3877 42.7684 43.9956C45.6464 43.0076 48.5102 43.258 49.7822 46.8375C50.2817 48.245 50.3552 49.4796 50.2096 51.7418V51.8343H54.016L54.0257 51.7179C54.0285 50.4791 54.0014 49.6441 54.1134 48.4164C54.2094 47.3581 54.5388 46.2616 55.5226 46.1314C57.6134 45.6936 57.5132 50.3406 57.5541 51.8343V51.8339Z" fill="#D52736"/>
<path d="M65.6398 51.8343H69.6143C69.8067 47.5201 69.4365 42.4088 68.0391 37.9457C67.7696 37.0787 67.4529 36.2271 67.0903 35.3947C66.2444 33.4661 65.1059 31.7203 63.7491 30.1068C62.2404 28.3145 60.4433 26.7028 58.417 25.4335C57.8163 25.0567 57.196 24.7119 56.5589 24.4004V24.3997C55.9191 24.0869 55.262 23.8107 54.5909 23.5724L54.5881 23.5713C46.8487 20.826 39.021 22.7782 32.4545 26.3464C31.1903 27.0352 29.9604 27.7852 28.7694 28.5937C27.6215 29.3721 26.5074 30.1993 25.4303 31.073L25.4279 31.0747C23.8921 32.3207 22.4393 33.6653 21.0786 35.1C20.7746 35.4217 20.4743 35.7494 20.1825 36.0801C19.4014 36.965 18.1978 38.2051 18.5549 39.4872C18.8377 40.504 20.1513 40.2041 20.6085 39.8543C21.3109 39.4779 22.0818 38.8811 22.7422 38.3232C23.6356 37.5676 24.4797 36.7537 25.3648 35.9876C28.9434 32.8881 32.6739 30.4981 36.3482 28.8804C37.1363 28.533 37.9374 28.2162 38.7499 27.9305C39.5307 27.6558 40.3226 27.4139 41.1235 27.2053L41.127 27.2042C47.9643 25.4311 55.3937 26.5798 60.1507 32.1497C64.7336 37.5153 65.5698 44.6973 65.6398 51.8346V51.8343ZM16.3275 45.7695C16.7546 45.3712 17.1897 44.8517 17.6431 44.2768C18.2775 43.4727 18.3413 42.6941 18.0903 42.1324C17.9997 41.9276 17.8633 41.7462 17.6917 41.6022C17.5256 41.4631 17.329 41.3651 17.1179 41.3161C16.601 41.198 15.9826 41.383 15.4574 42.0212C14.8639 42.7426 14.044 43.9766 13.8766 45.0682C13.8445 45.2631 13.8382 45.4614 13.8579 45.658C13.8787 45.8394 13.9272 46.0119 14.0087 46.1695L14.0094 46.1709C14.1432 46.4271 14.3689 46.5622 14.6694 46.5736C14.7322 46.5757 14.8001 46.5729 14.8722 46.565C14.9426 46.5574 15.0189 46.5432 15.1 46.5245V46.5251L15.1041 46.5241C15.509 46.4271 15.9139 46.1549 16.3275 45.7691V45.7695Z" fill="#D52736"/>
<path d="M75.582 51.8353L75.6101 51.8346H75.6243C76.0403 51.8574 76.7621 51.6663 77.1784 50.9646C77.2613 50.8244 77.3327 50.664 77.3864 50.4822C77.4419 50.2969 77.48 50.0867 77.496 49.8509L77.4991 49.8024C77.8149 38.7755 74.4342 29.6465 68.6945 23.4449C67.5899 22.2498 66.3833 21.1529 65.0884 20.1666C63.8073 19.1914 62.4421 18.3317 61.0089 17.5976H61.0085L60.9856 17.5865L60.9849 17.5858C56.1607 15.1228 50.6889 14.177 45.3187 14.6317C43.2248 14.8084 41.1542 15.1969 39.1387 15.7912L39.1245 15.7957C33.6014 17.4279 28.4617 20.6678 24.2733 24.9185C23.0512 26.1584 21.9145 27.4795 20.8711 28.8728C23.8084 26.3412 26.9596 24.1206 30.2557 22.3561C30.9905 21.9621 31.7368 21.5898 32.4934 21.2395C33.242 20.893 34.0012 20.5701 34.77 20.2712L34.7721 20.2705L34.7742 20.2695C37.6862 19.1387 40.5569 18.4177 43.4283 18.0956C46.2994 17.7735 49.1726 17.8497 52.0905 18.3131C54.167 18.6435 56.1937 19.1865 58.0195 19.9464C58.3735 20.0936 58.7222 20.2501 59.0634 20.4156C59.4003 20.5787 59.7321 20.7519 60.0569 20.9351H60.0573L60.0625 20.9379L60.0621 20.9382C66.4903 24.4548 70.9561 31.67 72.9231 39.8169C73.6953 43.0199 74.075 46.3049 74.0539 49.5994V49.6001L74.0529 49.695C74.0858 50.5771 74.3885 51.3155 74.9071 51.6476C75.0034 51.7092 75.1081 51.7577 75.2194 51.7889H75.2201C75.3338 51.8211 75.4544 51.8374 75.582 51.8353Z" fill="#D52736"/>
<path d="M64.0879 15.0845C79.5433 20.1841 90.7126 34.7036 90.7778 51.8347H83.1303C83.6364 36.8702 77.0986 23.3626 64.0879 15.0845Z" fill="#FAB60F"/>
<path d="M19.2142 63.85H16.1209L15.3548 66.5423H12.8896L16.1518 56.2309H19.2752L22.6292 66.5423H20.0566L19.2142 63.85ZM16.4731 62.1056H18.8468C18.2242 60.091 17.8206 58.7092 17.6369 57.9594H17.606L17.1162 59.9179L16.4731 62.1056ZM30.5766 63.85H27.4829L26.7175 66.5423H24.252L27.5134 56.2309H30.6379L33.9916 66.5423H31.419L30.5766 63.85ZM27.8351 62.1056H30.2088C29.5862 60.091 29.1826 58.7092 28.9989 57.9594H28.9684L28.4786 59.9179L27.8351 62.1056ZM36.3489 66.4966V56.3688C37.3699 56.2157 38.4622 56.1392 39.626 56.1392C41.8263 56.1392 43.406 56.598 44.3635 57.5186C45.3203 58.4391 45.7977 59.6425 45.7977 61.1265C45.7977 62.881 45.2541 64.24 44.1642 65.2038C43.0743 66.1672 41.3926 66.6493 39.1209 66.6493C38.0694 66.6493 37.1452 66.5984 36.3489 66.4966ZM38.7226 58.0515V64.7678C38.8553 64.7982 39.1413 64.8135 39.5802 64.8135C40.7592 64.8135 41.673 64.5025 42.3189 63.8829C42.9647 63.263 43.2861 62.3761 43.2861 61.2183C43.2861 60.1575 42.9928 59.3492 42.4031 58.7934C41.8134 58.2375 40.9638 57.9594 39.8558 57.9594C39.3913 57.9594 39.0134 57.9906 38.7226 58.0515ZM48.3391 56.2309H50.7127V60.1932H54.7708V56.2313H57.1448V66.5423H54.7708V62.2434H50.7127V66.5423H48.3391V56.2309ZM65.7501 63.85H62.6568L61.891 66.5423H59.4255L62.6876 56.2309H65.8114L69.1654 66.5423H66.5925L65.7501 63.85ZM63.009 62.1056H65.3826C64.76 60.091 64.3565 58.7092 64.1727 57.9594H64.1422L63.652 59.9179L63.009 62.1056ZM77.1124 63.85H74.0188L73.253 66.5423H70.7875L74.0493 56.2309H77.1734L80.5271 66.5423H77.9548L77.1124 63.85ZM74.371 62.1056H76.7446C76.122 60.091 75.7185 58.7092 75.5347 57.9594H75.5042L75.014 59.9179L74.371 62.1056ZM82.8844 66.542V56.3688C83.7528 56.2157 84.8195 56.1392 86.0855 56.1392C87.6476 56.1392 88.7705 56.3968 89.4544 56.9118C90.1384 57.4268 90.4806 58.1638 90.4806 59.1224C90.4806 59.6938 90.3093 60.2088 89.9647 60.6704C89.6297 61.125 89.163 61.4658 88.6276 61.6467V61.7077C89.2707 61.9477 89.7352 62.58 90.0212 63.6048C90.5468 65.4507 90.8324 66.4301 90.8785 66.5423H88.4588C88.255 66.16 88.0099 65.3593 87.7239 64.1402C87.5811 63.5286 87.3869 63.1002 87.1422 62.8554C86.8971 62.6105 86.504 62.4883 85.9628 62.4883H85.2279V66.5423H82.8844V66.542ZM85.2279 57.9594V60.7899H86.2079C86.8 60.7899 87.267 60.6548 87.6091 60.3871C87.9513 60.1194 88.1222 59.7599 88.1222 59.3059C88.1222 58.8522 87.969 58.5 87.6601 58.2531C87.3516 58.0055 86.9123 57.8832 86.3459 57.8832C85.7895 57.8832 85.4168 57.9089 85.2279 57.9594Z" fill="#D52736"/>
</g>
<defs>
<clipPath id="clip0_3879_6201">
<rect width="104" height="67" fill="white"/>
</clipPath>
</defs>
</svg>
