<svg width="20" height="21" viewBox="0 0 20 21" fill="none" xmlns="http://www.w3.org/2000/svg">
<path d="M17.4184 10.9449C17.4996 10.7323 17.5208 10.4982 17.4794 10.2724C17.438 10.0466 17.3359 9.83926 17.1859 9.67653L12.8999 5.02176C12.8011 4.91062 12.6829 4.82197 12.5521 4.76098C12.4214 4.69999 12.2808 4.66789 12.1385 4.66655C11.9963 4.66521 11.8552 4.69465 11.7235 4.75316C11.5918 4.81167 11.4722 4.89808 11.3716 5.00734C11.271 5.1166 11.1914 5.24653 11.1375 5.38954C11.0836 5.53256 11.0565 5.68579 11.0578 5.84031C11.059 5.99482 11.0886 6.14752 11.1447 6.28949C11.2009 6.43147 11.2825 6.55988 11.3848 6.66722L13.8429 9.33673H3.5715C3.28732 9.33673 3.01478 9.45933 2.81383 9.67757C2.61289 9.8958 2.5 10.1918 2.5 10.5004C2.5 10.809 2.61289 11.105 2.81383 11.3233C3.01478 11.5415 3.28732 11.6641 3.5715 11.6641H13.8429L11.3859 14.3325C11.2836 14.4398 11.202 14.5682 11.1458 14.7102C11.0896 14.8522 11.0601 15.0049 11.0588 15.1594C11.0576 15.3139 11.0847 15.4671 11.1386 15.6101C11.1925 15.7531 11.272 15.8831 11.3726 15.9923C11.4732 16.1016 11.5929 16.188 11.7246 16.2465C11.8562 16.305 11.9973 16.3345 12.1396 16.3331C12.2819 16.3318 12.4225 16.2997 12.5532 16.2387C12.6839 16.1777 12.8022 16.0891 12.901 15.9779L17.187 11.3231C17.2863 11.2148 17.3649 11.0863 17.4184 10.9449Z" fill="#1A56DB"/>
</svg>
