<svg width="220" height="66" viewBox="0 0 220 66" fill="none" xmlns="http://www.w3.org/2000/svg">
<path d="M32.5097 0.0576172C14.9671 0.595347 0.861328 14.9348 0.861328 32.5903C0.861328 50.5743 15.4154 65.1528 33.4063 65.1826C33.4063 65.1826 33.4063 65.1826 33.4362 65.1826C39.4132 65.1826 55.5811 62.6732 63.2018 45.8542C59.8546 47.2284 56.2385 47.9155 52.6224 47.9155C37.0821 47.9155 24.5304 37.848 24.5304 22.3435C24.5005 14.3672 26.9212 7.94432 30.6269 3.22425C31.3741 2.26828 32.5994 0.923959 33.4362 0.0576172H32.5097Z" fill="url(#paint0_linear_1642_4778)"/>
<path d="M36.3637 3.22425C41.235 9.73676 42.3706 15.9804 42.3706 22.3734C42.3706 37.9078 29.789 47.9454 14.2786 47.9454C10.6625 47.9454 7.04636 47.2584 3.69922 45.8842C11.4694 63.1811 27.4878 65.2125 33.4648 65.2125C51.4557 65.2125 66.0397 50.6042 66.0397 32.6202C66.0397 14.9647 51.9339 0.625223 34.3913 0.0874929L33.435 0.0576172C34.3016 0.894086 35.6465 2.20854 36.3637 3.22425Z" fill="url(#paint1_linear_1642_4778)"/>
<path d="M30.0902 3.94122C26.6833 8.66129 24.5017 14.8153 24.5316 22.224C24.5614 30.3497 28.0281 37.1311 33.4971 41.6122C39.2948 36.922 42.5822 29.812 42.4029 22.3734C42.3431 16.309 41.7753 10.633 36.5155 3.40349C35.5891 2.20853 34.573 1.07333 33.4672 0.0576172C33.3776 0.0576172 31.4051 2.08904 30.0902 3.94122Z" fill="white"/>
<path d="M81.8483 18.7637V27.2777C82.4161 27.3375 83.0138 27.3674 83.6712 27.3972C84.3287 27.4271 84.8965 27.4271 85.4644 27.4271C86.4506 27.4271 87.4069 27.3674 88.3931 27.218C89.2 27.0985 90.0069 26.8894 90.7242 26.501C91.3517 26.2023 91.8897 25.7243 92.3081 25.1567C92.7265 24.4995 92.9357 23.7526 92.9058 22.9759C92.9058 21.3926 92.338 20.2873 91.1724 19.6599C90.0069 19.0325 88.423 18.7338 86.3908 18.7338L81.8483 18.7637ZM81.8483 14.7606H85.4345C87.377 14.7606 88.9012 14.4917 89.977 13.9241C91.0828 13.3565 91.6207 12.3707 91.6207 10.9666C91.6207 9.62228 91.0529 8.66632 89.9172 8.09871C88.7816 7.53111 87.2874 7.26224 85.4644 7.26224C84.6873 7.26224 84 7.26224 83.4023 7.29211C82.8046 7.32199 82.2666 7.35186 81.8483 7.41161V14.7606ZM85.285 31.6692C83.7908 31.6692 82.2965 31.6094 80.8023 31.5198C79.4574 31.4601 78.1425 31.251 76.8574 30.9223V3.79687C77.4551 3.67738 78.0827 3.58776 78.7402 3.49813C79.3977 3.40851 80.085 3.31889 80.8023 3.28902C81.5195 3.25914 82.2069 3.1994 82.8643 3.16952C83.5218 3.13965 84.2092 3.13965 84.8069 3.13965C86.3908 3.13965 87.9747 3.25914 89.5287 3.52801C90.8437 3.73713 92.1287 4.15536 93.2943 4.81259C94.3104 5.35032 95.177 6.15691 95.7747 7.14275C96.4023 8.2182 96.7012 9.47291 96.6713 10.7276C96.7012 11.9226 96.3724 13.1175 95.715 14.1332C95.0276 15.0892 94.1311 15.8659 93.0552 16.3738C94.7586 16.9414 96.0138 17.7778 96.7908 18.8832C97.5977 19.9885 97.9863 21.3926 98.0161 23.0655C98.0161 25.9334 96.9702 28.1142 94.8782 29.5481C92.846 30.9522 89.6184 31.6692 85.285 31.6692Z" fill="#FFFFFF"/>
<path d="M107.909 27.9005C109.045 27.9303 110.21 27.8407 111.346 27.6615V22.2543C110.957 22.1348 110.569 22.0751 110.18 22.0153C109.613 21.9257 109.045 21.8958 108.507 21.8958C107.969 21.8958 107.431 21.9257 106.863 22.0153C106.355 22.0751 105.847 22.2244 105.369 22.4634C104.951 22.6725 104.562 22.9713 104.293 23.3596C104.024 23.8077 103.875 24.3156 103.905 24.8235C103.905 25.9885 104.263 26.7653 104.98 27.2134C105.698 27.6615 106.684 27.9005 107.909 27.9005ZM107.521 9.70728C108.895 9.67741 110.27 9.85665 111.585 10.3048C112.601 10.6334 113.498 11.2308 114.215 12.0076C114.902 12.7544 115.38 13.6805 115.62 14.6365C115.918 15.7418 116.068 16.9069 116.038 18.0421V30.8281C115.291 30.9775 114.155 31.1866 112.631 31.4256C110.928 31.6646 109.224 31.7841 107.491 31.7542C106.325 31.7841 105.16 31.6646 104.024 31.3957C103.068 31.1866 102.141 30.7982 101.334 30.2306C100.587 29.6929 99.9896 28.9759 99.6011 28.1395C99.1528 27.1238 98.9436 26.0483 98.9735 24.943C98.9436 23.8675 99.1827 22.8219 99.6908 21.8958C100.139 21.0594 100.797 20.3723 101.603 19.8644C102.47 19.3267 103.397 18.9383 104.413 18.7292C105.518 18.4902 106.624 18.3707 107.73 18.4006C108.298 18.4006 108.865 18.4305 109.433 18.5201C110.061 18.5798 110.718 18.6993 111.316 18.8487V18.0421C111.316 17.5044 111.256 16.9666 111.107 16.4289C110.987 15.921 110.748 15.4729 110.39 15.0846C110.031 14.6663 109.583 14.3676 109.045 14.1884C108.357 13.9494 107.67 13.8597 106.953 13.8597C105.907 13.8597 104.891 13.9494 103.845 14.0987C103.068 14.2182 102.291 14.3975 101.544 14.6663L100.946 10.723C101.813 10.4541 102.739 10.245 103.636 10.0956C104.891 9.88653 106.176 9.76703 107.431 9.76703" fill="#FFFFFF"/>
<path d="M119.413 10.9338C122.252 10.1869 125.151 9.79854 128.08 9.79854C129.544 9.7388 131.009 9.97779 132.383 10.4856C133.459 10.9039 134.416 11.5611 135.133 12.4573C135.85 13.3535 136.328 14.3991 136.567 15.5343C136.866 16.8189 137.016 18.1334 136.986 19.4478V31.3077H132.114V20.2245C132.144 19.2686 132.055 18.2827 131.875 17.3566C131.756 16.6695 131.517 16.0123 131.158 15.4148C130.829 14.907 130.351 14.5485 129.783 14.3394C129.096 14.1004 128.379 13.9809 127.662 13.9809C127.004 13.9809 126.377 14.0108 125.719 14.1004C125.032 14.19 124.554 14.2497 124.225 14.3095V31.3376H119.354" fill="#FFFFFF"/>
<path d="M144.219 20.7325C144.219 22.8834 144.727 24.5563 145.743 25.7812C146.759 27.006 148.164 27.6035 149.987 27.6035C150.644 27.6035 151.331 27.5736 151.989 27.5138C152.437 27.4541 152.886 27.3943 153.334 27.2748V15.1759C152.796 14.8174 152.228 14.5486 151.6 14.3395C150.883 14.0706 150.106 13.9511 149.329 13.9511C147.566 13.9511 146.251 14.5486 145.444 15.7734C144.637 16.9982 144.219 18.6712 144.219 20.7325ZM158.205 30.6805C155.515 31.4572 152.736 31.8456 149.927 31.8456C148.403 31.8754 146.879 31.6066 145.444 31.0688C144.159 30.5909 143.023 29.844 142.067 28.8582C141.111 27.8723 140.394 26.6774 139.945 25.3928C139.437 23.929 139.168 22.3755 139.198 20.8221C139.168 19.2985 139.377 17.7451 139.826 16.2813C140.184 14.9967 140.812 13.8316 141.649 12.786C142.456 11.8301 143.472 11.0533 144.607 10.5455C145.863 10.0077 147.237 9.73888 148.612 9.76876C149.509 9.76876 150.435 9.88825 151.302 10.1272C151.989 10.3364 152.676 10.6052 153.334 10.9338V0.806594L158.205 0" fill="#FFFFFF"/>
<path d="M161.791 31.3356V0.864211L166.662 0.0576172V10.5135C167.26 10.3044 167.888 10.1251 168.545 10.0355C169.232 9.916 169.95 9.82637 170.667 9.82637C172.37 9.82637 173.775 10.0654 174.881 10.5433C175.927 10.9616 176.853 11.6487 177.541 12.515C178.228 13.4112 178.736 14.4568 178.975 15.5622C179.274 16.8467 179.423 18.1612 179.393 19.4756V31.3356H174.522V20.2524C174.522 19.2964 174.462 18.3106 174.283 17.3845C174.163 16.6974 173.924 16.0401 173.536 15.4427C173.207 14.9647 172.729 14.5763 172.191 14.3672C171.534 14.1282 170.816 14.0087 170.099 14.0087C169.442 14.0087 168.784 14.0685 168.127 14.2178C167.619 14.3075 167.111 14.4269 166.632 14.5763V31.3356" fill="#FFFFFF"/>
<path d="M190.063 27.9005C191.199 27.9303 192.365 27.8407 193.5 27.6615V22.2543C193.112 22.1348 192.723 22.0751 192.335 22.0153C191.767 21.9257 191.199 21.8958 190.661 21.8958C190.123 21.8958 189.555 21.9257 189.017 22.0153C188.509 22.0751 188.001 22.2244 187.523 22.4634C187.105 22.6725 186.716 22.9713 186.447 23.3596C186.178 23.8077 186.029 24.3156 186.059 24.8235C186.059 25.9885 186.417 26.7653 187.135 27.2134C187.852 27.6615 188.808 27.9005 190.063 27.9005ZM189.645 9.70728C191.02 9.67741 192.395 9.85665 193.709 10.3048C195.712 10.9321 197.266 12.5752 197.774 14.6365C198.073 15.7418 198.192 16.9069 198.192 18.0421V30.8281C197.445 30.9775 196.309 31.1866 194.785 31.4256C193.082 31.6646 191.349 31.7841 189.645 31.7542C188.48 31.7542 187.314 31.6347 186.178 31.3957C185.222 31.1866 184.296 30.7982 183.489 30.2306C182.742 29.6929 182.144 28.9759 181.755 28.1395C181.307 27.1238 181.098 26.0483 181.128 24.943C181.098 23.8675 181.337 22.8219 181.845 21.8958C182.293 21.0594 182.951 20.3723 183.758 19.8644C184.624 19.3267 185.581 18.9383 186.567 18.7292C187.673 18.4902 188.778 18.3707 189.884 18.4006C190.452 18.4006 191.02 18.4305 191.588 18.5201C192.215 18.5798 192.873 18.6993 193.47 18.8487V18.0421C193.47 17.5044 193.411 16.9666 193.261 16.4289C193.142 15.921 192.903 15.4729 192.544 15.0846C192.185 14.6663 191.737 14.3676 191.229 14.1884C190.572 13.9494 189.854 13.8597 189.137 13.8597C188.091 13.8597 187.045 13.9494 186.029 14.0987C185.252 14.2182 184.475 14.3975 183.728 14.6663L183.13 10.723C183.997 10.4541 184.923 10.245 185.82 10.0956C187.105 9.82678 188.36 9.70728 189.645 9.70728Z" fill="#FFFFFF"/>
<path d="M201.537 10.9355C202.733 10.6069 203.958 10.3679 205.213 10.1588C206.857 9.91979 208.53 9.80029 210.204 9.80029C211.937 9.80029 213.372 10.0393 214.507 10.5173C215.583 10.9355 216.539 11.6226 217.287 12.4889C218.004 13.3852 218.482 14.4307 218.721 15.5659C219.02 16.8505 219.139 18.165 219.139 19.5093V31.3692H214.268V20.286C214.298 19.3301 214.208 18.3442 214.059 17.4181C213.939 16.731 213.7 16.0738 213.342 15.4763C213.013 14.9685 212.535 14.61 211.967 14.4009C211.28 14.1619 210.562 14.0424 209.845 14.0424C209.188 14.0424 208.56 14.0723 207.903 14.1619C207.245 14.2515 206.737 14.3112 206.408 14.371V31.3991H201.537" fill="#FFFFFF"/>
<path d="M80.0555 51.9197V62.973C80.444 63.0328 81.0716 63.0925 81.8785 63.1523C82.6854 63.212 83.4923 63.2718 84.3291 63.2718C85.5245 63.2718 86.7498 63.1822 87.9452 63.0328C89.021 62.8834 90.067 62.5847 91.0234 62.1366C91.89 61.7482 92.6073 61.1209 93.1452 60.3441C93.713 59.4778 94.0119 58.4621 93.9521 57.4464C93.982 56.5203 93.8027 55.5942 93.3843 54.7577C93.0257 54.0408 92.4578 53.4732 91.7705 53.0549C90.9935 52.6068 90.1268 52.3081 89.2004 52.1886C88.0946 52.0093 86.959 51.9496 85.8233 51.9496L80.0555 51.9197ZM80.0555 49.5597H85.375C86.3314 49.5597 87.2578 49.4701 88.1843 49.3207C88.9912 49.2012 89.7981 48.9323 90.5153 48.5141C91.1728 48.1257 91.7107 47.588 92.0693 46.9607C92.4578 46.1839 92.667 45.3176 92.6372 44.4512C92.667 43.6446 92.4578 42.8381 92.0394 42.151C91.6211 41.4937 91.0233 40.956 90.336 40.5975C89.4992 40.1793 88.6027 39.8805 87.6762 39.7312C86.5705 39.5519 85.4348 39.4623 84.2992 39.4623C83.313 39.4623 82.4762 39.4922 81.7888 39.5519C81.1015 39.6117 80.5337 39.6714 80.0854 39.761L80.0555 49.5597ZM84.0302 65.5721C83.5819 65.5721 83.044 65.5422 82.4463 65.5123C81.8486 65.4824 81.221 65.4227 80.5934 65.3629C79.9658 65.3032 79.3681 65.2136 78.8003 65.124C78.2325 65.0343 77.7543 64.9447 77.3359 64.8252V37.9387C77.8739 37.7894 78.4118 37.6699 78.9497 37.6101C79.5474 37.5205 80.1451 37.4309 80.7727 37.3711C81.4003 37.3114 82.0279 37.2516 82.6256 37.2218C83.2233 37.1919 83.7911 37.1919 84.2992 37.1919C85.7337 37.1919 87.1682 37.3114 88.6027 37.5504C89.8578 37.7595 91.0532 38.1479 92.1889 38.7453C93.1751 39.2831 94.0119 40.0598 94.6395 40.9859C95.267 42.0315 95.5659 43.2264 95.536 44.4214C95.5659 45.7956 95.1774 47.1399 94.4004 48.2751C93.6532 49.3207 92.5475 50.0974 91.3222 50.4858C92.0992 50.665 92.8463 50.9339 93.5337 51.2924C94.1912 51.6508 94.7889 52.099 95.2969 52.6367C95.8349 53.2043 96.2234 53.8914 96.4923 54.6681C96.7912 55.5942 96.9406 56.5502 96.9107 57.5061C96.9107 60.135 95.8647 62.1665 93.7728 63.5406C91.6808 64.9148 88.4233 65.5721 84.0302 65.5721Z" fill="#FFFFFF"/>
<path d="M106.505 63.4536C107.521 63.4536 108.417 63.4238 109.194 63.364C109.852 63.3043 110.509 63.2147 111.137 63.0952V55.7462C110.689 55.5669 110.21 55.4176 109.732 55.3279C108.866 55.1487 107.969 55.089 107.072 55.1188C106.385 55.1188 105.728 55.1786 105.04 55.2682C104.353 55.3578 103.725 55.5669 103.098 55.8657C102.53 56.1644 102.022 56.6125 101.633 57.1204C101.215 57.7477 101.036 58.4946 101.066 59.2713C101.036 59.9584 101.185 60.6156 101.454 61.243C101.693 61.7508 102.082 62.2288 102.53 62.5574C103.038 62.886 103.606 63.125 104.233 63.2445C105.04 63.364 105.787 63.4536 106.505 63.4536ZM106.295 44.0057C107.491 43.9759 108.686 44.185 109.792 44.5734C110.689 44.9318 111.466 45.4696 112.123 46.1865C112.721 46.9035 113.169 47.74 113.408 48.6362C113.677 49.622 113.826 50.6676 113.797 51.6833V64.8278C113.408 64.9473 113.02 65.037 112.631 65.0967C112.123 65.1863 111.525 65.3058 110.838 65.3954C110.151 65.4851 109.433 65.6046 108.597 65.6643C107.76 65.724 106.953 65.7539 106.056 65.7539C105.04 65.7539 103.994 65.6344 103.008 65.3954C102.141 65.1863 101.305 64.798 100.587 64.2602C99.9 63.7225 99.3322 63.0354 98.9736 62.2288C98.5552 61.2728 98.346 60.2571 98.3759 59.2116C98.346 58.1958 98.5851 57.21 99.0333 56.3138C99.4517 55.5072 100.079 54.8201 100.856 54.3122C101.693 53.7446 102.649 53.3563 103.636 53.1472C104.801 52.9082 105.967 52.7887 107.132 52.7887C107.521 52.7887 107.939 52.8185 108.328 52.8484C108.746 52.8783 109.135 52.938 109.523 52.9978C109.912 53.0575 110.24 53.1472 110.539 53.2069C110.748 53.2368 110.928 53.2965 111.137 53.3861V52.1016C111.137 51.3846 111.077 50.6975 110.987 49.9805C110.898 49.3233 110.659 48.6959 110.27 48.1283C109.882 47.5607 109.374 47.1126 108.746 46.784C107.939 46.4255 107.043 46.2463 106.146 46.2762C104.622 46.2762 103.456 46.3658 102.709 46.6048C101.962 46.8438 101.394 46.9931 101.066 47.1425L100.707 44.8422C101.394 44.5734 102.112 44.3642 102.829 44.2447C103.964 44.0954 105.1 44.0057 106.295 44.0057Z" fill="#FFFFFF"/>
<path d="M117.859 45.2259C118.636 45.0168 119.682 44.7778 120.997 44.5089C122.581 44.2102 124.225 44.0907 125.839 44.0907C127.184 44.0608 128.528 44.2699 129.813 44.7778C130.83 45.196 131.696 45.8532 132.354 46.7196C133.011 47.6158 133.459 48.6614 133.699 49.7667C133.997 51.0513 134.117 52.3657 134.117 53.6802V65.331H131.487V54.5167C131.517 53.262 131.397 52.0073 131.188 50.7824C131.039 49.8862 130.68 49.0199 130.172 48.273C129.694 47.6457 129.066 47.1378 128.319 46.8689C127.393 46.5702 126.407 46.4208 125.45 46.4507C124.374 46.4507 123.298 46.5105 122.253 46.6598C121.655 46.7196 121.057 46.8391 120.489 47.0183V65.3011H117.859" fill="#FFFFFF"/>
<path d="M143.414 53.9835C144.43 54.7005 145.386 55.4772 146.312 56.3136C147.269 57.18 148.225 58.136 149.181 59.1517C150.138 60.1674 151.004 61.213 151.841 62.2884C152.588 63.2743 153.306 64.29 153.963 65.3356H150.795C150.138 64.2302 149.42 63.2145 148.614 62.2287C147 60.257 145.207 58.4944 143.234 56.8812C142.487 56.2539 141.65 55.6863 140.813 55.2083V65.3356H138.184V34.5356L140.813 34.0576V53.4756C141.381 52.9976 142.069 52.3404 142.905 51.504C143.742 50.6675 144.609 49.831 145.446 48.9945C146.282 48.1581 147.149 47.3515 147.926 46.5449C148.703 45.7682 149.361 45.0811 149.869 44.4836H153.096C152.499 45.1408 151.781 45.8578 150.974 46.6345L148.464 49.0842L145.924 51.5936C145.027 52.4599 144.22 53.2366 143.414 53.9835Z" fill="#FFFFFF"/>
<defs>
<linearGradient id="paint0_linear_1642_4778" x1="1.09563" y1="2.82813" x2="41.7639" y2="51.8805" gradientUnits="userSpaceOnUse">
<stop stop-color="#EF3B23"/>
<stop offset="1" stop-color="#8B131E"/>
</linearGradient>
<linearGradient id="paint1_linear_1642_4778" x1="1.26578" y1="32.6142" x2="55.8217" y2="32.6142" gradientUnits="userSpaceOnUse">
<stop stop-color="#B7212F"/>
<stop offset="1" stop-color="#EF3B23"/>
</linearGradient>
</defs>
</svg>
