<svg width="168" height="51" viewBox="0 0 168 51" fill="none" xmlns="http://www.w3.org/2000/svg">
<path d="M24.3584 0.0449219C10.8566 0.458789 0 11.4953 0 25.0839C0 38.9255 11.2016 50.1459 25.0484 50.1689C25.0484 50.1689 25.0484 50.1689 25.0714 50.1689C29.6717 50.1689 42.1154 48.2375 47.9808 35.2926C45.4046 36.3503 42.6215 36.8791 39.8383 36.8791C27.8776 36.8791 18.2171 29.1306 18.2171 17.1974C18.1941 11.0584 20.0572 6.11498 22.9093 2.48214C23.4844 1.74638 24.4274 0.711708 25.0714 0.0449219H24.3584Z" fill="url(#paint0_linear_4553_3936)"/>
<path d="M27.324 2.48214C31.0733 7.49454 31.9473 12.3 31.9473 17.2204C31.9473 29.1766 22.2638 36.9021 10.3261 36.9021C7.5429 36.9021 4.75974 36.3733 2.18359 35.3156C8.16394 48.6284 20.4927 50.1919 25.0929 50.1919C38.9397 50.1919 50.1644 38.9485 50.1644 25.1069C50.1644 11.5183 39.3077 0.481784 25.806 0.0679159L25.0699 0.0449219C25.737 0.688716 26.772 1.70039 27.324 2.48214Z" fill="url(#paint1_linear_4553_3936)"/>
<path d="M22.4972 3.03299C19.8751 6.66583 18.196 11.4023 18.219 17.1045C18.242 23.3585 20.9101 28.5778 25.1194 32.0267C29.5816 28.4169 32.1118 22.9446 31.9738 17.2194C31.9278 12.5519 31.4908 8.18334 27.4425 2.61912C26.7295 1.69941 25.9474 0.825695 25.0964 0.0439453C25.0274 0.0439453 23.5093 1.60744 22.4972 3.03299Z" fill="white"/>
<path d="M62.3334 14.4412V20.9941C62.7704 21.0401 63.2305 21.063 63.7365 21.086C64.2425 21.109 64.6796 21.109 65.1166 21.109C65.8756 21.109 66.6117 21.063 67.3707 20.9481C67.9917 20.8561 68.6128 20.6952 69.1648 20.3963C69.6478 20.1663 70.0619 19.7985 70.3839 19.3616C70.7059 18.8558 70.8669 18.2809 70.8439 17.6831C70.8439 16.4645 70.4069 15.6138 69.5098 15.1309C68.6128 14.6481 67.3937 14.4182 65.8296 14.4182L62.3334 14.4412ZM62.3334 11.3602H65.0936C66.5887 11.3602 67.7617 11.1532 68.5898 10.7164C69.4408 10.2795 69.8549 9.52074 69.8549 8.44009C69.8549 7.40542 69.4178 6.66965 68.5438 6.23279C67.6697 5.79593 66.5197 5.589 65.1166 5.589C64.5185 5.589 63.9895 5.589 63.5295 5.61199C63.0695 5.63498 62.6554 5.65798 62.3334 5.70396V11.3602ZM64.9786 24.374C63.8285 24.374 62.6784 24.328 61.5284 24.259C60.4933 24.213 59.4812 24.0521 58.4922 23.7992V2.92185C58.9522 2.82988 59.4352 2.7609 59.9413 2.69193C60.4473 2.62295 60.9763 2.55397 61.5284 2.53098C62.0804 2.50799 62.6094 2.462 63.1155 2.43901C63.6215 2.41602 64.1505 2.41602 64.6105 2.41602C65.8296 2.41602 67.0487 2.50799 68.2448 2.71492C69.2568 2.87587 70.2459 3.19777 71.1429 3.7036C71.925 4.11747 72.592 4.73827 73.052 5.49703C73.5351 6.32476 73.7651 7.29045 73.7421 8.25614C73.7651 9.17585 73.5121 10.0956 73.006 10.8773C72.477 11.6131 71.787 12.2109 70.9589 12.6018C72.27 13.0386 73.2361 13.6824 73.8341 14.5331C74.4551 15.3839 74.7541 16.4645 74.7771 17.7521C74.7771 19.9594 73.9721 21.6379 72.362 22.7415C70.7979 23.8222 68.3138 24.374 64.9786 24.374Z" fill="white"/>
<path d="M82.3913 21.4737C83.2653 21.4967 84.1624 21.4277 85.0364 21.2898V17.1281C84.7374 17.0361 84.4384 16.9901 84.1394 16.9442C83.7023 16.8752 83.2653 16.8522 82.8513 16.8522C82.4373 16.8522 82.0233 16.8752 81.5862 16.9442C81.1952 16.9901 80.8042 17.1051 80.4362 17.2891C80.1141 17.45 79.8151 17.6799 79.6081 17.9788C79.4011 18.3237 79.2861 18.7146 79.3091 19.1055C79.3091 20.0022 79.5851 20.6 80.1371 20.9449C80.6892 21.2898 81.4482 21.4737 82.3913 21.4737ZM82.0923 7.4712C83.1503 7.4482 84.2084 7.58616 85.2204 7.93105C86.0025 8.18397 86.6925 8.64382 87.2446 9.24163C87.7736 9.81645 88.1416 10.5292 88.3256 11.265C88.5556 12.1157 88.6706 13.0124 88.6476 13.8861V23.727C88.0726 23.842 87.1986 24.0029 86.0255 24.1868C84.7144 24.3708 83.4033 24.4628 82.0693 24.4398C81.1722 24.4628 80.2752 24.3708 79.4011 24.1639C78.6651 24.0029 77.952 23.704 77.331 23.2671C76.756 22.8533 76.2959 22.3015 75.9969 21.6577C75.6519 20.8759 75.4909 20.0482 75.5139 19.1974C75.4909 18.3697 75.6749 17.565 76.0659 16.8522C76.4109 16.2084 76.917 15.6796 77.538 15.2887C78.205 14.8748 78.9181 14.5759 79.7001 14.415C80.5512 14.231 81.4022 14.1391 82.2533 14.1621C82.6903 14.1621 83.1273 14.185 83.5643 14.254C84.0474 14.3 84.5534 14.392 85.0134 14.5069V13.8861C85.0134 13.4723 84.9674 13.0584 84.8524 12.6445C84.7604 12.2537 84.5764 11.9088 84.3004 11.6099C84.0244 11.288 83.6794 11.058 83.2653 10.9201C82.7363 10.7362 82.2073 10.6672 81.6552 10.6672C80.8502 10.6672 80.0681 10.7362 79.2631 10.8511C78.6651 10.9431 78.067 11.081 77.492 11.288L77.032 8.25295C77.699 8.04601 78.412 7.88507 79.1021 7.7701C80.0681 7.60915 81.0572 7.51718 82.0233 7.51718" fill="white"/>
<path d="M91.2452 8.4158C93.4304 7.84098 95.6615 7.54208 97.9156 7.54208C99.0427 7.49609 100.17 7.68003 101.228 8.07091C102.056 8.39281 102.792 8.89864 103.344 9.58842C103.896 10.2782 104.264 11.0829 104.448 11.9567C104.678 12.9453 104.793 13.957 104.77 14.9687V24.0968H101.021V15.5665C101.044 14.8307 100.975 14.072 100.837 13.3592C100.745 12.8304 100.561 12.3245 100.285 11.8647C100.032 11.4738 99.6637 11.1979 99.2267 11.037C98.6977 10.853 98.1456 10.761 97.5936 10.761C97.0876 10.761 96.6045 10.784 96.0985 10.853C95.5695 10.922 95.2014 10.968 94.9484 11.014V24.1198H91.1992" fill="white"/>
<path d="M110.335 15.9569C110.335 17.6124 110.726 18.9 111.508 19.8426C112.29 20.7853 113.371 21.2452 114.774 21.2452C115.28 21.2452 115.809 21.2222 116.315 21.1762C116.661 21.1302 117.006 21.0842 117.351 20.9923V11.6803C116.937 11.4044 116.499 11.1974 116.016 11.0365C115.464 10.8295 114.866 10.7376 114.268 10.7376C112.911 10.7376 111.899 11.1974 111.278 12.1401C110.657 13.0828 110.335 14.3704 110.335 15.9569ZM121.1 23.6134C119.03 24.2113 116.891 24.5102 114.728 24.5102C113.555 24.5331 112.382 24.3262 111.278 23.9123C110.289 23.5445 109.415 22.9697 108.679 22.2109C107.943 21.4521 107.391 20.5324 107.046 19.5437C106.655 18.4171 106.448 17.2215 106.471 16.0259C106.448 14.8532 106.609 13.6576 106.954 12.531C107.23 11.5423 107.713 10.6456 108.357 9.84085C108.978 9.10509 109.76 8.50728 110.634 8.1164C111.6 7.70254 112.658 7.4956 113.716 7.51859C114.406 7.51859 115.119 7.61056 115.786 7.7945C116.315 7.95545 116.845 8.16239 117.351 8.41531V0.620801L121.1 0" fill="white"/>
<path d="M123.859 24.1172V0.664746L127.609 0.0439453V8.09137C128.069 7.93042 128.552 7.79247 129.058 7.72349C129.587 7.63152 130.139 7.56254 130.691 7.56254C132.002 7.56254 133.083 7.74648 133.934 8.11436C134.739 8.43626 135.452 8.96509 135.981 9.63187C136.51 10.3217 136.901 11.1264 137.085 11.9771C137.315 12.9658 137.43 13.9775 137.407 14.9892V24.1172H133.658V15.587C133.658 14.8512 133.612 14.0924 133.474 13.3797C133.382 12.8508 133.198 12.345 132.899 11.8852C132.646 11.5173 132.278 11.2184 131.864 11.0574C131.358 10.8735 130.806 10.7815 130.254 10.7815C129.748 10.7815 129.242 10.8275 128.736 10.9425C128.345 11.0114 127.954 11.1034 127.586 11.2184V24.1172" fill="white"/>
<path d="M145.622 21.4737C146.496 21.4967 147.393 21.4277 148.267 21.2898V17.1281C147.968 17.0361 147.669 16.9901 147.37 16.9442C146.933 16.8752 146.496 16.8522 146.082 16.8522C145.668 16.8522 145.231 16.8752 144.817 16.9442C144.426 16.9901 144.035 17.1051 143.667 17.2891C143.345 17.45 143.046 17.6799 142.839 17.9788C142.632 18.3237 142.517 18.7146 142.54 19.1055C142.54 20.0022 142.816 20.6 143.368 20.9449C143.92 21.2898 144.656 21.4737 145.622 21.4737ZM145.3 7.4712C146.358 7.4482 147.416 7.58616 148.428 7.93105C149.969 8.4139 151.165 9.67849 151.556 11.265C151.786 12.1157 151.878 13.0124 151.878 13.8861V23.727C151.303 23.842 150.429 24.0029 149.256 24.1868C147.945 24.3708 146.611 24.4628 145.3 24.4398C144.403 24.4398 143.506 24.3478 142.632 24.1639C141.896 24.0029 141.182 23.704 140.561 23.2671C139.986 22.8533 139.526 22.3015 139.227 21.6577C138.882 20.8759 138.721 20.0482 138.744 19.1974C138.721 18.3697 138.905 17.565 139.296 16.8522C139.641 16.2084 140.147 15.6796 140.768 15.2887C141.435 14.8748 142.172 14.5759 142.931 14.415C143.782 14.231 144.633 14.1391 145.484 14.1621C145.921 14.1621 146.358 14.185 146.795 14.254C147.278 14.3 147.784 14.392 148.244 14.5069V13.8861C148.244 13.4723 148.198 13.0584 148.083 12.6445C147.991 12.2537 147.807 11.9088 147.531 11.6099C147.255 11.288 146.91 11.058 146.519 10.9201C146.013 10.7362 145.461 10.6672 144.909 10.6672C144.104 10.6672 143.299 10.7362 142.517 10.8511C141.919 10.9431 141.32 11.081 140.745 11.288L140.285 8.25295C140.952 8.04601 141.666 7.88507 142.356 7.7701C143.345 7.56317 144.311 7.4712 145.3 7.4712Z" fill="white"/>
<path d="M154.453 8.41669C155.373 8.16377 156.316 7.97983 157.282 7.81888C158.547 7.63494 159.835 7.54297 161.124 7.54297C162.458 7.54297 163.562 7.72691 164.436 8.09479C165.264 8.41669 166 8.94552 166.575 9.61231C167.127 10.3021 167.495 11.1068 167.679 11.9805C167.909 12.9692 168.001 13.9809 168.001 15.0156V24.1436H164.252V15.6134C164.275 14.8776 164.206 14.1189 164.091 13.4061C163.999 12.8773 163.815 12.3714 163.539 11.9116C163.286 11.5207 162.918 11.2448 162.481 11.0838C161.952 10.8999 161.4 10.8079 160.847 10.8079C160.341 10.8079 159.858 10.8309 159.352 10.8999C158.846 10.9689 158.455 11.0149 158.202 11.0608V24.1666H154.453" fill="white"/>
<path d="M60.9525 39.9604V48.4676C61.2515 48.5136 61.7345 48.5596 62.3556 48.6056C62.9766 48.6516 63.5976 48.6976 64.2417 48.6976C65.1617 48.6976 66.1048 48.6286 67.0249 48.5136C67.8529 48.3987 68.658 48.1687 69.394 47.8238C70.061 47.5249 70.6131 47.0421 71.0271 46.4443C71.4641 45.7775 71.6941 44.9958 71.6481 44.214C71.6711 43.5012 71.5331 42.7885 71.2111 42.1447C70.9351 41.5928 70.4981 41.156 69.969 40.8341C69.371 40.4892 68.704 40.2593 67.9909 40.1673C67.1399 40.0293 66.2658 39.9834 65.3918 39.9834L60.9525 39.9604ZM60.9525 38.1439H65.0467C65.7828 38.1439 66.4958 38.075 67.2089 37.96C67.8299 37.868 68.4509 37.6611 69.003 37.3392C69.509 37.0403 69.923 36.6264 70.199 36.1436C70.4981 35.5458 70.6591 34.879 70.6361 34.2122C70.6591 33.5914 70.4981 32.9706 70.176 32.4418C69.854 31.9359 69.394 31.5221 68.865 31.2462C68.2209 30.9243 67.5309 30.6943 66.8178 30.5794C65.9668 30.4414 65.0927 30.3724 64.2187 30.3724C63.4596 30.3724 62.8156 30.3954 62.2866 30.4414C61.7575 30.4874 61.3205 30.5334 60.9755 30.6024L60.9525 38.1439ZM64.0117 50.468C63.6667 50.468 63.2526 50.445 62.7926 50.422C62.3326 50.399 61.8495 50.353 61.3665 50.3071C60.8835 50.2611 60.4235 50.1921 59.9864 50.1231C59.5494 50.0541 59.1814 49.9852 58.8594 49.8932V29.1998C59.2734 29.0849 59.6874 28.9929 60.1014 28.9469C60.5615 28.8779 61.0215 28.8089 61.5045 28.763C61.9876 28.717 62.4706 28.671 62.9306 28.648C63.3906 28.625 63.8277 28.625 64.2187 28.625C65.3228 28.625 66.4268 28.717 67.5309 28.9009C68.4969 29.0619 69.417 29.3608 70.291 29.8206C71.0501 30.2345 71.6941 30.8323 72.1771 31.5451C72.6602 32.3498 72.8902 33.2695 72.8672 34.1892C72.8902 35.2469 72.5912 36.2815 71.9931 37.1553C71.4181 37.96 70.5671 38.5578 69.624 38.8567C70.222 38.9947 70.7971 39.2016 71.3261 39.4775C71.8321 39.7534 72.2922 40.0983 72.6832 40.5122C73.0972 40.9491 73.3962 41.4779 73.6032 42.0757C73.8332 42.7885 73.9483 43.5242 73.9253 44.26C73.9253 46.2833 73.1202 47.8468 71.5101 48.9045C69.9 49.9622 67.3929 50.468 64.0117 50.468Z" fill="white"/>
<path d="M81.3093 48.8376C82.0914 48.8376 82.7814 48.8146 83.3794 48.7686C83.8855 48.7226 84.3915 48.6536 84.8745 48.5617V42.9055C84.5295 42.7675 84.1615 42.6525 83.7935 42.5836C83.1264 42.4456 82.4364 42.3996 81.7463 42.4226C81.2173 42.4226 80.7113 42.4686 80.1822 42.5376C79.6532 42.6066 79.1702 42.7675 78.6872 42.9974C78.2501 43.2274 77.8591 43.5723 77.5601 43.9631C77.2381 44.446 77.1001 45.0208 77.1231 45.6186C77.1001 46.1474 77.2151 46.6533 77.4221 47.1361C77.6061 47.527 77.9051 47.8949 78.2501 48.1478C78.6412 48.4007 79.0782 48.5846 79.5612 48.6766C80.1822 48.7686 80.7573 48.8376 81.3093 48.8376ZM81.1483 33.8694C82.0684 33.8464 82.9884 34.0073 83.8395 34.3062C84.5295 34.5821 85.1275 34.996 85.6336 35.5478C86.0936 36.0996 86.4386 36.7434 86.6226 37.4332C86.8296 38.192 86.9446 38.9967 86.9216 39.7785V49.8952C86.6226 49.9872 86.3236 50.0562 86.0246 50.1022C85.6336 50.1711 85.1735 50.2631 84.6445 50.3321C84.1155 50.4011 83.5634 50.493 82.9194 50.539C82.2754 50.585 81.6543 50.608 80.9643 50.608C80.1822 50.608 79.3772 50.516 78.6182 50.3321C77.9511 50.1711 77.3071 49.8722 76.755 49.4584C76.226 49.0445 75.789 48.5157 75.513 47.8949C75.191 47.1591 75.0299 46.3774 75.0529 45.5726C75.0299 44.7909 75.214 44.0321 75.559 43.3423C75.881 42.7215 76.364 42.1927 76.9621 41.8018C77.6061 41.365 78.3421 41.0661 79.1012 40.9051C79.9982 40.7212 80.8953 40.6292 81.7923 40.6292C82.0914 40.6292 82.4134 40.6522 82.7124 40.6752C83.0344 40.6982 83.3334 40.7442 83.6324 40.7901C83.9315 40.8361 84.1845 40.9051 84.4145 40.9511C84.5755 40.9741 84.7135 41.0201 84.8745 41.089V40.1004C84.8745 39.5485 84.8285 39.0197 84.7595 38.4679C84.6905 37.962 84.5065 37.4792 84.2075 37.0423C83.9085 36.6055 83.5174 36.2606 83.0344 36.0077C82.4134 35.7318 81.7233 35.5938 81.0333 35.6168C79.8602 35.6168 78.9632 35.6858 78.3881 35.8697C77.8131 36.0537 77.3761 36.1686 77.1231 36.2836L76.8471 34.5132C77.3761 34.3062 77.9281 34.1453 78.4801 34.0533C79.3542 33.9383 80.2282 33.8694 81.1483 33.8694Z" fill="white"/>
<path d="M90.0469 34.8085C90.6449 34.6475 91.45 34.4636 92.462 34.2567C93.6811 34.0267 94.9462 33.9348 96.1882 33.9348C97.2233 33.9118 98.2584 34.0727 99.2474 34.4636C100.029 34.7855 100.696 35.2913 101.203 35.9581C101.709 36.6479 102.054 37.4526 102.238 38.3034C102.468 39.292 102.56 40.3037 102.56 41.3154V50.2825H100.535V41.9592C100.558 40.9935 100.466 40.0278 100.305 39.0851C100.19 38.3953 99.9145 37.7285 99.5234 37.1537C99.1554 36.6709 98.6724 36.28 98.0973 36.0731C97.3843 35.8431 96.6253 35.7282 95.8892 35.7512C95.0612 35.7512 94.2331 35.7972 93.4281 35.9121C92.968 35.9581 92.508 36.0501 92.071 36.188V50.2595H90.0469" fill="white"/>
<path d="M109.717 41.549C110.499 42.1008 111.235 42.6986 111.948 43.3424C112.684 44.0092 113.42 44.745 114.156 45.5267C114.892 46.3085 115.559 47.1132 116.203 47.9409C116.778 48.6997 117.33 49.4814 117.836 50.2862H115.398C114.892 49.4355 114.34 48.6537 113.719 47.8949C112.477 46.3774 111.097 45.0209 109.579 43.7793C109.004 43.2964 108.36 42.8596 107.716 42.4917V50.2862H105.691V26.5808L107.716 26.2129V41.1581C108.153 40.7902 108.682 40.2844 109.326 39.6406C109.97 38.9968 110.637 38.353 111.281 37.7092C111.925 37.0654 112.592 36.4446 113.19 35.8238C113.788 35.226 114.294 34.6972 114.685 34.2373H117.169C116.709 34.7432 116.157 35.295 115.536 35.8928L113.604 37.7782L111.649 39.7096C110.959 40.3764 110.338 40.9742 109.717 41.549Z" fill="white"/>
<defs>
<linearGradient id="paint0_linear_4553_3936" x1="0.180335" y1="2.17727" x2="31.481" y2="39.9308" gradientUnits="userSpaceOnUse">
<stop stop-color="#EF3B23"/>
<stop offset="1" stop-color="#8B131E"/>
</linearGradient>
<linearGradient id="paint1_linear_4553_3936" x1="0.310682" y1="25.1024" x2="42.3001" y2="25.1024" gradientUnits="userSpaceOnUse">
<stop stop-color="#B7212F"/>
<stop offset="1" stop-color="#EF3B23"/>
</linearGradient>
</defs>
</svg>
