<svg width="20" height="21" viewBox="0 0 20 21" fill="none" xmlns="http://www.w3.org/2000/svg">
<path fill-rule="evenodd" clip-rule="evenodd" d="M16.7064 5.79279C16.8939 5.98031 16.9992 6.23462 16.9992 6.49979C16.9992 6.76495 16.8939 7.01926 16.7064 7.20679L8.70643 15.2068C8.5189 15.3943 8.2646 15.4996 7.99943 15.4996C7.73427 15.4996 7.47996 15.3943 7.29243 15.2068L3.29243 11.2068C3.11027 11.0182 3.00948 10.7656 3.01176 10.5034C3.01403 10.2412 3.1192 9.99038 3.30461 9.80497C3.49002 9.61956 3.74083 9.51439 4.00303 9.51211C4.26523 9.50983 4.51783 9.61063 4.70643 9.79279L7.99943 13.0858L15.2924 5.79279C15.48 5.60532 15.7343 5.5 15.9994 5.5C16.2646 5.5 16.5189 5.60532 16.7064 5.79279Z" fill="#046C4E"/>
</svg>
