<svg width="65" height="64" viewBox="0 0 65 64" fill="none" xmlns="http://www.w3.org/2000/svg">
<path d="M47.993 11.92C47.7796 11.92 47.5663 11.8667 47.3796 11.76C42.2596 9.12004 37.833 8.00004 32.5263 8.00004C27.2463 8.00004 22.233 9.25337 17.673 11.76C17.033 12.1067 16.233 11.8667 15.8596 11.2267C15.513 10.5867 15.753 9.76004 16.393 9.41337C21.353 6.72004 26.793 5.33337 32.5263 5.33337C38.2063 5.33337 43.1663 6.58671 48.6063 9.38671C49.273 9.73337 49.513 10.5334 49.1663 11.1734C48.9263 11.6534 48.473 11.92 47.993 11.92ZM9.83297 25.92C9.5663 25.92 9.29963 25.84 9.05963 25.68C8.4463 25.2534 8.31297 24.4267 8.73963 23.8134C11.3796 20.08 14.7396 17.1467 18.7396 15.0934C27.113 10.7734 37.833 10.7467 46.233 15.0667C50.233 17.12 53.593 20.0267 56.233 23.7334C56.6596 24.32 56.5263 25.1734 55.913 25.6C55.2996 26.0267 54.473 25.8934 54.0463 25.28C51.6463 21.92 48.6063 19.28 45.0063 17.44C37.353 13.52 27.5663 13.52 19.9396 17.4667C16.313 19.3334 13.273 22 10.873 25.36C10.6596 25.7334 10.2596 25.92 9.83297 25.92ZM26.4996 58.1067C26.153 58.1067 25.8063 57.9734 25.5663 57.7067C23.2463 55.3867 21.993 53.8934 20.2063 50.6667C18.3663 47.3867 17.4063 43.3867 17.4063 39.0934C17.4063 31.1734 24.1796 24.72 32.4996 24.72C40.8196 24.72 47.593 31.1734 47.593 39.0934C47.593 39.84 47.0063 40.4267 46.2596 40.4267C45.513 40.4267 44.9263 39.84 44.9263 39.0934C44.9263 32.64 39.353 27.3867 32.4996 27.3867C25.6463 27.3867 20.073 32.64 20.073 39.0934C20.073 42.9334 20.9263 46.48 22.553 49.36C24.2596 52.4267 25.433 53.7334 27.4863 55.8134C27.993 56.3467 27.993 57.1734 27.4863 57.7067C27.193 57.9734 26.8463 58.1067 26.4996 58.1067ZM45.6196 53.1734C42.4463 53.1734 39.6463 52.3734 37.353 50.8C33.3796 48.1067 31.0063 43.7334 31.0063 39.0934C31.0063 38.3467 31.593 37.76 32.3396 37.76C33.0863 37.76 33.673 38.3467 33.673 39.0934C33.673 42.8534 35.593 46.4 38.8463 48.5867C40.7396 49.8667 42.953 50.48 45.6196 50.48C46.2596 50.48 47.3263 50.4 48.393 50.2134C49.113 50.08 49.8063 50.56 49.9396 51.3067C50.073 52.0267 49.593 52.72 48.8463 52.8534C47.3263 53.1467 45.993 53.1734 45.6196 53.1734ZM40.2596 58.6667C40.153 58.6667 40.0196 58.64 39.913 58.6134C35.673 57.44 32.8996 55.8667 29.993 53.0134C26.2596 49.3067 24.2063 44.3734 24.2063 39.0934C24.2063 34.7734 27.8863 31.2534 32.4196 31.2534C36.953 31.2534 40.633 34.7734 40.633 39.0934C40.633 41.9467 43.113 44.2667 46.1796 44.2667C49.2463 44.2667 51.7263 41.9467 51.7263 39.0934C51.7263 29.04 43.0596 20.88 32.393 20.88C24.8196 20.88 17.8863 25.0934 14.7663 31.6267C13.7263 33.7867 13.193 36.32 13.193 39.0934C13.193 41.1734 13.3796 44.4534 14.9796 48.72C15.2463 49.4134 14.8996 50.1867 14.2063 50.4267C13.513 50.6934 12.7396 50.32 12.4996 49.6534C11.193 46.16 10.553 42.6934 10.553 39.0934C10.553 35.8934 11.1663 32.9867 12.3663 30.4534C15.913 23.0134 23.7796 18.1867 32.393 18.1867C44.5263 18.1867 54.393 27.5467 54.393 39.0667C54.393 43.3867 50.713 46.9067 46.1796 46.9067C41.6463 46.9067 37.9663 43.3867 37.9663 39.0667C37.9663 36.2134 35.4863 33.8934 32.4196 33.8934C29.353 33.8934 26.873 36.2134 26.873 39.0667C26.873 43.6267 28.633 47.8934 31.8596 51.0934C34.393 53.6 36.8196 54.9867 40.5796 56.0267C41.2996 56.2134 41.6996 56.96 41.513 57.6534C41.3796 58.2667 40.8196 58.6667 40.2596 58.6667Z" fill="#004880"/>
</svg>
