<svg width="71" height="67" viewBox="0 0 71 67" fill="none" xmlns="http://www.w3.org/2000/svg">
<path d="M53.743 14.4202C53.5296 14.4202 53.3163 14.3668 53.1296 14.2602C48.0096 11.6202 43.583 10.5002 38.2763 10.5002C32.9963 10.5002 27.983 11.7535 23.423 14.2602C22.783 14.6068 21.983 14.3668 21.6096 13.7268C21.263 13.0868 21.503 12.2602 22.143 11.9135C27.103 9.22016 32.543 7.8335 38.2763 7.8335C43.9563 7.8335 48.9163 9.08683 54.3563 11.8868C55.023 12.2335 55.263 13.0335 54.9163 13.6735C54.6763 14.1535 54.223 14.4202 53.743 14.4202ZM15.583 28.4202C15.3163 28.4202 15.0496 28.3402 14.8096 28.1802C14.1963 27.7535 14.063 26.9268 14.4896 26.3135C17.1296 22.5802 20.4896 19.6468 24.4896 17.5935C32.863 13.2735 43.583 13.2468 51.983 17.5668C55.983 19.6202 59.343 22.5268 61.983 26.2335C62.4096 26.8202 62.2763 27.6735 61.663 28.1002C61.0496 28.5268 60.223 28.3935 59.7963 27.7802C57.3963 24.4202 54.3563 21.7802 50.7563 19.9402C43.103 16.0202 33.3163 16.0202 25.6896 19.9668C22.063 21.8335 19.023 24.5002 16.623 27.8602C16.4096 28.2335 16.0096 28.4202 15.583 28.4202ZM32.2496 60.6068C31.903 60.6068 31.5563 60.4735 31.3163 60.2068C28.9963 57.8868 27.743 56.3935 25.9563 53.1668C24.1163 49.8868 23.1563 45.8868 23.1563 41.5935C23.1563 33.6735 29.9296 27.2202 38.2496 27.2202C46.5696 27.2202 53.343 33.6735 53.343 41.5935C53.343 42.3402 52.7563 42.9268 52.0096 42.9268C51.263 42.9268 50.6763 42.3402 50.6763 41.5935C50.6763 35.1402 45.103 29.8868 38.2496 29.8868C31.3963 29.8868 25.823 35.1402 25.823 41.5935C25.823 45.4335 26.6763 48.9802 28.303 51.8602C30.0096 54.9268 31.183 56.2335 33.2363 58.3135C33.743 58.8468 33.743 59.6735 33.2363 60.2068C32.943 60.4735 32.5963 60.6068 32.2496 60.6068ZM51.3696 55.6735C48.1963 55.6735 45.3963 54.8735 43.103 53.3002C39.1296 50.6068 36.7563 46.2335 36.7563 41.5935C36.7563 40.8468 37.343 40.2602 38.0896 40.2602C38.8363 40.2602 39.423 40.8468 39.423 41.5935C39.423 45.3535 41.343 48.9002 44.5963 51.0868C46.4896 52.3668 48.703 52.9802 51.3696 52.9802C52.0096 52.9802 53.0763 52.9002 54.143 52.7135C54.863 52.5802 55.5563 53.0602 55.6896 53.8068C55.823 54.5268 55.343 55.2202 54.5963 55.3535C53.0763 55.6468 51.743 55.6735 51.3696 55.6735ZM46.0096 61.1668C45.903 61.1668 45.7696 61.1402 45.663 61.1135C41.423 59.9402 38.6496 58.3668 35.743 55.5135C32.0096 51.8068 29.9563 46.8735 29.9563 41.5935C29.9563 37.2735 33.6363 33.7535 38.1696 33.7535C42.703 33.7535 46.383 37.2735 46.383 41.5935C46.383 44.4468 48.863 46.7668 51.9296 46.7668C54.9963 46.7668 57.4763 44.4468 57.4763 41.5935C57.4763 31.5402 48.8096 23.3802 38.143 23.3802C30.5696 23.3802 23.6363 27.5935 20.5163 34.1268C19.4763 36.2868 18.943 38.8202 18.943 41.5935C18.943 43.6735 19.1296 46.9535 20.7296 51.2202C20.9963 51.9135 20.6496 52.6868 19.9563 52.9268C19.263 53.1935 18.4896 52.8202 18.2496 52.1535C16.943 48.6602 16.303 45.1935 16.303 41.5935C16.303 38.3935 16.9163 35.4868 18.1163 32.9535C21.663 25.5135 29.5296 20.6868 38.143 20.6868C50.2763 20.6868 60.143 30.0468 60.143 41.5668C60.143 45.8868 56.463 49.4068 51.9296 49.4068C47.3963 49.4068 43.7163 45.8868 43.7163 41.5668C43.7163 38.7135 41.2363 36.3935 38.1696 36.3935C35.103 36.3935 32.623 38.7135 32.623 41.5668C32.623 46.1268 34.383 50.3935 37.6096 53.5935C40.143 56.1002 42.5696 57.4868 46.3296 58.5268C47.0496 58.7135 47.4496 59.4602 47.263 60.1535C47.1296 60.7668 46.5696 61.1668 46.0096 61.1668Z" fill="#FD3B3B"/>
<circle cx="16.75" cy="16.5" r="16" fill="#FD3B3B"/>
<path d="M14.75 19.0994V7.5H17.36V19.0994H14.75ZM14.75 25.5436V22.9659H17.36V25.5436H14.75Z" fill="white"/>
</svg>
