<svg width="20" height="20" viewBox="0 0 20 20" fill="none" xmlns="http://www.w3.org/2000/svg">
<path d="M15.8346 14.9999V8.19023C15.8346 7.7482 15.6508 7.33443 15.3088 7.0543C14.4103 6.31817 12.582 4.85506 11.1271 3.55459C10.4777 2.97419 9.49072 2.93752 8.82947 3.5043L4.74999 7.001C4.38058 7.31764 4.16797 7.77989 4.16797 8.26643V14.9999C4.16797 15.9204 4.91416 16.6665 5.83464 16.6665H6.2513C7.17178 16.6665 7.91797 15.9204 7.91797 14.9999V13.3332C7.91797 12.4127 8.66414 11.6665 9.58464 11.6665H10.418C11.3385 11.6665 12.0846 12.4127 12.0846 13.3332V14.9999C12.0846 15.9204 12.8308 16.6665 13.7513 16.6665H14.168C15.0885 16.6665 15.8346 15.9204 15.8346 14.9999Z" stroke="#9F9F9F" stroke-width="1.8" stroke-linecap="round"/>
</svg>
