<svg width="18" height="18" viewBox="0 0 18 18" fill="none" xmlns="http://www.w3.org/2000/svg">
<circle cx="9" cy="8.5" r="7" fill="black"/>
<path d="M8.99935 6.41667C8.77018 6.41667 8.574 6.33507 8.41081 6.17188C8.24761 6.00868 8.16602 5.8125 8.16602 5.58333C8.16602 5.35417 8.24761 5.15799 8.41081 4.99479C8.574 4.8316 8.77018 4.75 8.99935 4.75C9.22852 4.75 9.4247 4.8316 9.58789 4.99479C9.75109 5.15799 9.83268 5.35417 9.83268 5.58333C9.83268 5.8125 9.75109 6.00868 9.58789 6.17188C9.4247 6.33507 9.22852 6.41667 8.99935 6.41667ZM8.37435 12.25V7.25H9.62435V12.25H8.37435Z" fill="#FDF6B2"/>
</svg>
