<svg width="14" height="14" viewBox="0 0 14 14" fill="none" xmlns="http://www.w3.org/2000/svg">
<path d="M14 7C14 10.86 10.86 14 7 14C3.14 14 0 10.86 0 7C0 3.14 3.14 0 7 0C10.86 0 14 3.14 14 7ZM12.8 7C12.8 3.8 10.2 1.2 7 1.2C3.8 1.2 1.2 3.8 1.2 7C1.2 10.2 3.8 12.8 7 12.8C10.2 12.82 12.8 10.2 12.8 7Z" fill="black"/>
<path d="M7.00039 5.97949C6.66039 5.97949 6.40039 6.23949 6.40039 6.57949V9.63949C6.40039 9.97949 6.66039 10.2395 7.00039 10.2395C7.34039 10.2395 7.60039 9.97949 7.60039 9.63949V6.57949C7.60039 6.23949 7.34039 5.97949 7.00039 5.97949Z" fill="black"/>
<path d="M7.00039 3.77979C6.84039 3.77979 6.68039 3.83979 6.58039 3.95979C6.46039 4.05979 6.40039 4.21979 6.40039 4.37979C6.40039 4.41979 6.40039 4.45979 6.42039 4.49979C6.42039 4.53979 6.44039 4.57979 6.46039 4.61979C6.48039 4.65979 6.50039 4.67979 6.52039 4.71979C6.54039 4.75979 6.56039 4.77979 6.60039 4.81979C6.82039 5.03979 7.22039 5.03979 7.44039 4.81979C7.46039 4.79979 7.50039 4.75979 7.52039 4.71979C7.54039 4.67979 7.56039 4.65979 7.58039 4.61979C7.60039 4.57979 7.60039 4.53979 7.62039 4.49979C7.62039 4.45979 7.64039 4.41979 7.64039 4.37979C7.64039 4.21979 7.58039 4.05979 7.46039 3.95979C7.32039 3.83979 7.16039 3.77979 7.00039 3.77979Z" fill="black"/>
</svg>
