<svg width="56" height="70" viewBox="0 0 56 70" fill="none" xmlns="http://www.w3.org/2000/svg">
<path d="M55.9802 14.0145C55.9802 14.0145 57.729 54.2359 28.3498 69.9748C-1.72881 54.2359 0.0199518 14.0145 0.0199518 14.0145C14.01 14.0145 28.0001 0.0244141 28.0001 0.0244141C28.0001 0.0244141 40.2414 14.0145 55.9802 14.0145Z" fill="#FFCDD2"/>
<path d="M41.9904 34.9998C41.9904 42.6944 35.6949 48.9899 28.0003 48.9899C20.3058 48.9899 14.0103 42.6944 14.0103 34.9998C14.0103 27.3053 20.3058 21.0098 28.0003 21.0098C35.6949 21.0098 41.9904 27.3053 41.9904 34.9998Z" fill="white"/>
<path d="M27.9998 52.4879C18.3816 52.4879 10.5122 44.6185 10.5122 35.0003C10.5122 25.3821 18.3816 17.5127 27.9998 17.5127C37.618 17.5127 45.4874 25.3821 45.4874 35.0003C45.4874 44.6185 37.618 52.4879 27.9998 52.4879ZM27.9998 24.5077C22.2289 24.5077 17.5072 29.2294 17.5072 35.0003C17.5072 40.7712 22.2289 45.4928 27.9998 45.4928C33.7707 45.4928 38.4923 40.7712 38.4923 35.0003C38.4923 29.2294 33.7707 24.5077 27.9998 24.5077Z" fill="#F44336"/>
<path d="M14.0938 43.9404L36.9395 21.0946L41.906 26.0611L19.0602 48.9069L14.0938 43.9404Z" fill="#F44336"/>
</svg>
