<svg width="36" height="36" viewBox="0 0 36 36" fill="none" xmlns="http://www.w3.org/2000/svg">
<path d="M17.2539 0.015625C7.69011 0.308627 0 8.12201 0 17.7422C0 27.5415 7.9345 35.4851 17.7426 35.5014C17.7426 35.5014 17.7426 35.5014 17.7589 35.5014C21.0175 35.5014 29.8318 34.1341 33.9864 24.9696C32.1616 25.7184 30.1902 26.0928 28.2188 26.0928C19.7466 26.0928 12.9037 20.6071 12.9037 12.1589C12.8874 7.81273 14.2072 4.31299 16.2274 1.74108C16.6347 1.22019 17.3027 0.487684 17.7589 0.015625H17.2539Z" fill="url(#paint0_linear_5746_14506)"/>
<path d="M19.3537 1.73718C22.0094 5.28576 22.6285 8.68784 22.6285 12.1713C22.6285 20.6358 15.7693 26.1052 7.31348 26.1052C5.34208 26.1052 3.37067 25.7308 1.5459 24.982C5.78198 34.4069 14.5148 35.5138 17.7733 35.5138C27.5815 35.5138 35.5323 27.5539 35.5323 17.7546C35.5323 8.13439 27.8422 0.321 18.2784 0.0279976L17.757 0.0117188C18.2295 0.4675 18.9627 1.18373 19.3537 1.73718Z" fill="url(#paint1_linear_5746_14506)"/>
<path d="M15.9349 2.12784C14.0775 4.69975 12.8882 8.053 12.9045 12.0899C12.9208 16.5175 14.8107 20.2126 17.7922 22.6543C20.953 20.0986 22.7452 16.2245 22.6474 12.1713C22.6149 8.86689 22.3053 5.77409 19.4378 1.83484C18.9327 1.18373 18.3788 0.565167 17.776 0.0117188C17.7271 0.0117188 16.6518 1.11862 15.9349 2.12784Z" fill="white"/>
<defs>
<linearGradient id="paint0_linear_5746_14506" x1="0.127737" y1="1.52524" x2="22.2852" y2="28.2647" gradientUnits="userSpaceOnUse">
<stop stop-color="#EF3B23"/>
<stop offset="1" stop-color="#8B131E"/>
</linearGradient>
<linearGradient id="paint1_linear_5746_14506" x1="0.219253" y1="17.7514" x2="29.9617" y2="17.7514" gradientUnits="userSpaceOnUse">
<stop stop-color="#B7212F"/>
<stop offset="1" stop-color="#EF3B23"/>
</linearGradient>
</defs>
</svg>
